# xmcd
#
# Track frame offsets:
#	183
#	21293
#	39685
#	54963
#	71660
#	87198
#	101245
#	114875
#	134673
#	155055
#	170290
#	189533
#	208040
#	222885
#
# Disc length: 3192 seconds
#
# Revision: 2
# Processed by: cddbd v1.5.2PL0 Copyright (c) Steve Scherf et al.
# Submitted via: dBpowerAMP V4.0
#
DISCID=c90c760e
DTITLE=Various Artist - Op Veler Verzoek CD 1
DYEAR=2000
DGENRE=National Folk
TTITLE0=Gordon - Kon ik maar even bij je zijn
TTITLE1=Willeke Alberti and Andre van Duin - Vrienden blijven doen we altijd
TTITLE2=Corry Konings - Amore
TTITLE3=Zangeres Zonder Naam - Mexico
TTITLE4=Benny Neyman - Ik weet niet hoe
TTITLE5=Ron Brandsteder - Engelen bestaan niet
TTITLE6=Arne Jansen - Julie
TTITLE7=B.B. Band - Stille Willy
TTITLE8=Ria Valk - Moeder, ik ben zo bang
TTITLE9=Dolf Brouwers - O wat is het toch fijn om gelukkig te zijn
TTITLE10=Gert and Hermien - We blijven toch in Nederland
TTITLE11=Willy Alberti - Juliana bedankt
TTITLE12=Imca Marina - Kreta
TTITLE13=Harry Slinger - Moet je horen
EXTD=
EXTT0=
EXTT1=
EXTT2=
EXTT3=
EXTT4=
EXTT5=
EXTT6=
EXTT7=
EXTT8=
EXTT9=
EXTT10=
EXTT11=
EXTT12=
EXTT13=
PLAYORDER=
